<svg xmlns="http://www.w3.org/2000/svg" viewBox="0 0 400 400" width="400" height="400">
  <defs>
    <radialGradient id="bg5" cx="50%" cy="50%" r="50%">
      <stop offset="0%" stop-color="#E3F2FD"/>
      <stop offset="100%" stop-color="#BBDEFB"/>
    </radialGradient>
  </defs>
  <rect width="400" height="400" rx="40" fill="url(#bg5)"/>
  <circle cx="55" cy="55" r="3" fill="#42A5F5" opacity="0.5"/>
  <circle cx="345" cy="65" r="2" fill="#1E88E5" opacity="0.4"/>
  <!-- Ears -->
  <ellipse cx="140" cy="195" rx="52" ry="65" fill="#78909C"/>
  <ellipse cx="260" cy="195" rx="52" ry="65" fill="#78909C"/>
  <ellipse cx="140" cy="195" rx="38" ry="50" fill="#90A4AE"/>
  <ellipse cx="260" cy="195" rx="38" ry="50" fill="#90A4AE"/>
  <!-- Body -->
  <ellipse cx="200" cy="295" rx="85" ry="70" fill="#90A4AE"/>
  <!-- Head -->
  <circle cx="200" cy="195" r="75" fill="#90A4AE"/>
  <!-- Trunk -->
  <path d="M175 240 Q155 270 165 305 Q170 320 180 315 Q190 310 185 295 Q178 268 195 245" fill="#78909C"/>
  <!-- Eyes -->
  <circle cx="175" cy="178" r="13" fill="white"/>
  <circle cx="225" cy="178" r="13" fill="white"/>
  <circle cx="178" cy="179" r="8" fill="#37474F"/>
  <circle cx="228" cy="179" r="8" fill="#37474F"/>
  <circle cx="180" cy="177" r="3" fill="white"/>
  <circle cx="230" cy="177" r="3" fill="white"/>
  <!-- Smile -->
  <path d="M183 220 Q200 233 217 220" stroke="#546E7A" stroke-width="3" fill="none" stroke-linecap="round"/>
  <!-- Cheeks -->
  <circle cx="158" cy="208" r="11" fill="#EF9A9A" opacity="0.5"/>
  <circle cx="242" cy="208" r="11" fill="#EF9A9A" opacity="0.5"/>
  <!-- Tusks -->
  <path d="M182 232 Q165 250 168 265" stroke="#F5F5F5" stroke-width="7" fill="none" stroke-linecap="round"/>
  <!-- Legs -->
  <rect x="148" y="340" width="35" height="38" rx="12" fill="#90A4AE"/>
  <rect x="217" y="340" width="35" height="38" rx="12" fill="#90A4AE"/>
  <!-- Quote -->
  <text x="200" y="393" font-family="Georgia, serif" font-size="13" font-style="italic" text-anchor="middle" fill="#1565C0" font-weight="bold">"Never Forget Your Worth!"</text>
</svg>
